<svg xmlns="http://www.w3.org/2000/svg" viewBox="0 0 640 320" font-family="sans-serif" font-size="12">
  <defs><marker id="a" markerWidth="8" markerHeight="8" refX="6" refY="3" orient="auto"><path d="M0,0 L0,6 L8,3 z" fill="#666"/></marker></defs>
  <rect x="220" y="10" width="200" height="36" rx="6" fill="#334" stroke="#88a"/>
  <text x="320" y="33" fill="#fff" text-anchor="middle">Human: ", guardrails</text>
  <line x1="320" y1="46" x2="320" y2="62" stroke="#666" marker-end="url(#a)"/>
  <rect x="200" y="62" width="240" height="36" rx="6" fill="#353" stroke="#8a8"/>
  <text x="320" y="85" fill="#fff" text-anchor="middle">Architect LLM: 0;3>@8B<, IR</text>
  <line x1="320" y1="98" x2="320" y2="114" stroke="#666" marker-end="url(#a)"/>
  <rect x="200" y="114" width="240" height="36" rx="6" fill="#353" stroke="#8a8"/>
  <text x="320" y="137" fill="#fff" text-anchor="middle">Coder LLM: Lisp / JSON</text>
  <line x1="320" y1="150" x2="320" y2="166" stroke="#666" marker-end="url(#a)"/>
  <rect x="160" y="166" width="320" height="36" rx="6" fill="#443" stroke="#aa8"/>
  <text x="320" y="189" fill="#fff" text-anchor="middle">Tools: transpiler, stack-glue, flint</text>
  <line x1="320" y1="202" x2="320" y2="218" stroke="#666" marker-end="url(#a)"/>
  <rect x="200" y="218" width="240" height="36" rx="6" fill="#533" stroke="#a88"/>
  <text x="320" y="241" fill="#fff" text-anchor="middle">gforth: TESTS OK</text>
  <line x1="320" y1="254" x2="320" y2="270" stroke="#666" marker-end="url(#a)"/>
  <text x="320" y="295" fill="#8af" text-anchor="middle">FAIL � architect � PASS � commit</text>
</svg>
